<?xml version="1.0" encoding="UTF-8"?>
<!DOCTYPE svg PUBLIC "-//W3C//DTD SVG 1.0//EN" "http://www.w3.org/TR/2001/REC-SVG-20010904/DTD/svg10.dtd">
<!-- Creator: CorelDRAW 2020 (64 Bit) -->
<svg xmlns="http://www.w3.org/2000/svg" xml:space="preserve" width="100px" height="100px" version="1.0" shape-rendering="geometricPrecision" text-rendering="geometricPrecision" image-rendering="optimizeQuality" fill-rule="evenodd" clip-rule="evenodd"
viewBox="0 0 3.17 3.17"
 xmlns:xlink="http://www.w3.org/1999/xlink"
 xmlns:xodm="http://www.corel.com/coreldraw/odm/2003"
 class="svgLogo">
 <g id="Camada_x0020_1">
  <metadata id="CorelCorpID_0Corel-Layer"/>
  <g id="_2455928206080">
   <path fill="#FEFEFE" fill-rule="nonzero" d="M0 1.35l0 -1.32 0.9 -0.03c0.06,0 0.11,0 0.16,0.01 0.05,0.01 0.1,0.02 0.14,0.04 0.05,0.01 0.1,0.04 0.13,0.07 0.04,0.02 0.07,0.06 0.09,0.11 0.02,0.05 0.03,0.1 0.03,0.16 0,0.08 -0.02,0.15 -0.06,0.2 -0.03,0.05 -0.09,0.1 -0.17,0.14 0.09,0.02 0.16,0.06 0.21,0.12 0.04,0.06 0.07,0.13 0.07,0.22 0,0.06 -0.02,0.12 -0.04,0.17 -0.03,0.06 -0.06,0.1 -0.1,0.13 -0.05,0.03 -0.1,0.06 -0.15,0.08 -0.06,0.02 -0.11,0.04 -0.17,0.05 -0.05,0.01 -0.11,0.01 -0.17,0.01 -0.03,0 -0.08,0 -0.15,0 -0.07,0 -0.12,0 -0.15,0 -0.19,0 -0.37,0 -0.53,0 -0.03,-0.03 -0.04,-0.09 -0.04,-0.16zm0.6 -0.99c0,0.03 0,0.07 0,0.13 0,0.06 0,0.1 0,0.13 0,0.01 0.01,0.02 0.03,0.02 0.01,0 0.03,0 0.05,-0.01 0.02,0 0.04,0 0.06,0 0.01,-0.01 0.03,-0.01 0.05,-0.02 0.02,0 0.03,-0.01 0.04,-0.02 0.02,-0.01 0.03,-0.03 0.03,-0.05 0.01,-0.02 0.02,-0.04 0.02,-0.07 0,-0.1 -0.08,-0.15 -0.22,-0.15 -0.03,0.01 -0.05,0.01 -0.05,0.01 -0.01,0.01 -0.01,0.02 -0.01,0.03zm0.02 0.74c0,0.05 0,0.08 0.01,0.08l0.03 0c0.03,0 0.05,0 0.07,-0.01 0.02,0 0.04,0 0.06,-0.01 0.03,-0.01 0.04,-0.01 0.06,-0.03 0.01,-0.01 0.02,-0.02 0.03,-0.04 0.01,-0.02 0.02,-0.05 0.02,-0.08 0,-0.01 0,-0.03 -0.01,-0.04 0,-0.02 -0.01,-0.03 -0.01,-0.04 -0.01,-0.01 -0.02,-0.02 -0.03,-0.02 0,-0.01 -0.01,-0.02 -0.03,-0.02 -0.01,-0.01 -0.02,-0.01 -0.03,-0.01 -0.01,-0.01 -0.02,-0.01 -0.04,-0.01 -0.02,0 -0.03,-0.01 -0.04,-0.01 0,0 -0.02,0 -0.04,0 -0.02,0 -0.03,0 -0.03,0l0 0.04c0,0 -0.01,0.03 -0.01,0.07 -0.01,0.04 -0.01,0.07 -0.01,0.1l0 0.03zm2.54 0.39c-0.02,0.01 -0.05,0.02 -0.1,0.02 -0.05,0 -0.11,0 -0.18,0 -0.07,0 -0.11,-0.01 -0.11,-0.01 -0.05,0 -0.08,0 -0.1,0l-0.11 0c-0.01,0 -0.03,-0.02 -0.04,-0.06 -0.01,-0.04 -0.02,-0.1 -0.03,-0.17 -0.01,-0.07 -0.01,-0.11 -0.01,-0.11 -0.01,-0.07 -0.02,-0.11 -0.04,-0.13 -0.02,-0.02 -0.05,-0.03 -0.1,-0.03l-0.05 0 0 0.48c0,0.01 -0.01,0.01 -0.02,0.02 -0.01,0 -0.03,0.01 -0.06,0.01 -0.02,0 -0.05,0 -0.06,0 -0.02,0 -0.05,0 -0.08,0 -0.03,0 -0.05,0 -0.06,0l-0.15 0c-0.08,0 -0.15,0 -0.19,0 -0.01,0 -0.02,-0.01 -0.03,-0.01l0 -1.46c0,-0.02 0.03,-0.03 0.09,-0.03l0.9 0c0.16,0 0.28,0.04 0.36,0.1 0.09,0.07 0.13,0.16 0.13,0.29 0,0.15 -0.09,0.27 -0.26,0.34 0.04,0.01 0.06,0.03 0.09,0.04 0.02,0.02 0.04,0.04 0.06,0.05 0.02,0.02 0.03,0.05 0.04,0.07 0.02,0.03 0.03,0.05 0.03,0.07 0.01,0.03 0.02,0.05 0.02,0.09 0.01,0.03 0.01,0.05 0.01,0.08 0.01,0.02 0.01,0.05 0.01,0.08 0,0.03 0.01,0.06 0.01,0.07l0 0.09c0,0.01 0.01,0.03 0.02,0.04 0.01,0.02 0.02,0.04 0.02,0.05 0,0.01 0,0.02 -0.01,0.02zm-0.88 -1.07c0,0.04 0,0.07 0.01,0.09 0,0.02 0,0.04 0.01,0.07 0,0.04 0.01,0.06 0.03,0.07 0.03,0 0.05,0 0.08,-0.01 0.03,0 0.05,-0.01 0.08,-0.03 0.02,-0.01 0.04,-0.03 0.05,-0.05 0.02,-0.03 0.03,-0.06 0.03,-0.1 0,-0.02 -0.01,-0.04 -0.02,-0.05 0,-0.02 -0.01,-0.03 -0.03,-0.04 -0.01,-0.01 -0.03,-0.01 -0.04,-0.02 -0.02,-0.01 -0.03,-0.01 -0.05,-0.01 -0.03,0 -0.04,-0.01 -0.05,-0.01 -0.02,0 -0.03,0 -0.05,0l-0.02 0c-0.01,0.01 -0.02,0.02 -0.02,0.03 0,0.01 -0.01,0.04 -0.01,0.06z"/>
   <path fill="#FEFEFE" fill-rule="nonzero" d="M0 2.71c0,-0.27 0,-0.47 0,-0.6l0 -0.01c0,0 0,-0.02 0,-0.04 0,-0.02 0,-0.04 0,-0.06 0,-0.06 0.01,-0.1 0.02,-0.11 0,0 0,0 0.01,0 0.01,0 0.01,0 0.01,0 0.1,0 0.21,-0.01 0.34,-0.01l0.12 0c0.01,0.01 0.01,0.01 0.02,0.01 0.01,0 0.01,0 0.02,0 0,0.03 0,0.08 0,0.14 0,0.07 0,0.12 0,0.17 0.01,0.05 0.01,0.1 0.01,0.14l0 0.32c0,0.02 0,0.04 0,0.05 0,0.02 0,0.03 0.01,0.05 0,0.01 0.01,0.03 0.02,0.03 0.01,0.01 0.02,0.02 0.04,0.02 0.03,0 0.05,-0.01 0.06,-0.03 0.02,-0.02 0.02,-0.04 0.02,-0.07l0 -0.3c0,-0.04 0,-0.09 0.01,-0.17 0,-0.08 0,-0.14 0,-0.19l0 -0.05c0,-0.01 0,-0.02 -0.01,-0.03 0,-0.01 0,-0.02 0,-0.03l0 -0.04c0,-0.01 0.01,-0.02 0.02,-0.02 0.12,0 0.28,0 0.51,0l0 0.01 0.03 0c0,0.12 0,0.26 0,0.41l0 0.18c0,0.03 0,0.07 0,0.12 -0.01,0.05 -0.01,0.09 -0.01,0.11 0,0.07 -0.01,0.13 -0.03,0.19 -0.03,0.05 -0.06,0.1 -0.1,0.13 -0.03,0.03 -0.08,0.06 -0.14,0.08 -0.05,0.02 -0.11,0.04 -0.16,0.05 -0.06,0 -0.12,0.01 -0.19,0.01 -0.06,0 -0.12,-0.01 -0.17,-0.01 -0.06,-0.01 -0.11,-0.02 -0.17,-0.05 -0.06,-0.02 -0.1,-0.04 -0.14,-0.08 -0.05,-0.03 -0.08,-0.07 -0.11,-0.13 -0.02,-0.05 -0.04,-0.12 -0.04,-0.19zm3.16 0.1c0,0.01 0,0.03 0,0.05 0.01,0.02 0.01,0.04 0.01,0.06 0,0.02 0,0.04 0,0.06 0,0.02 0,0.04 0,0.06 -0.01,0.02 -0.01,0.04 -0.01,0.05 -0.01,0.02 -0.01,0.03 -0.02,0.04 -0.01,0.01 -0.02,0.01 -0.03,0.01l-0.4 0c-0.03,-0.02 -0.04,-0.09 -0.04,-0.22 0,-0.05 0,-0.11 0,-0.17 0,-0.07 0,-0.12 0,-0.15l0 -0.06c0,0 0,-0.01 0,-0.02 0,-0.02 0,-0.03 0,-0.04 -0.03,0.08 -0.05,0.2 -0.09,0.34 -0.03,0.15 -0.05,0.25 -0.07,0.3 0,0.02 -0.03,0.02 -0.08,0.02l-0.31 0c-0.03,0 -0.06,-0.01 -0.06,-0.02l-0.09 -0.35c0,-0.03 -0.01,-0.07 -0.02,-0.11 -0.01,-0.03 -0.02,-0.08 -0.03,-0.12 -0.01,-0.05 -0.02,-0.09 -0.03,-0.11 -0.01,0.17 -0.01,0.31 -0.01,0.4l0 0.14c0,0.07 0,0.12 0,0.15 0,0.01 -0.01,0.02 -0.02,0.02l-0.08 0c-0.03,0 -0.08,0 -0.15,0 -0.07,0 -0.12,0 -0.15,0 -0.03,0 -0.05,-0.01 -0.05,-0.02l0 -1.21c0,-0.01 0,-0.01 0.01,-0.02 0,0 0,0 0.01,0 0,-0.01 0.01,-0.01 0.01,-0.01 0.01,0 0.02,0 0.02,0 0.01,0 0.02,0 0.02,0 0.01,0 0.02,0 0.02,0 0.01,0 0.02,0 0.02,0l0.1 0c0.17,0 0.29,0 0.35,0.01 0.07,0 0.12,0 0.16,0 0.01,0.08 0.03,0.18 0.06,0.33l0.07 0.32 0.14 -0.66c0,0 0,0 0.01,0 0,0.01 0,0.01 0.01,0.01 0.06,0 0.15,0 0.27,-0.01 0.12,0 0.22,0 0.28,0l0.13 0c0.01,0 0.02,0.02 0.02,0.05 0.01,0.53 0.02,0.82 0.02,0.88z"/>
  </g>
 </g>
</svg>
